<svg width="15" height="15" viewBox="0 0 15 15" fill="none" xmlns="http://www.w3.org/2000/svg">
<path fill-rule="evenodd" clip-rule="evenodd" d="M7.5 0.625C3.70312 0.625 0.625 3.70312 0.625 7.5C0.625 11.2969 3.70312 14.375 7.5 14.375C11.2969 14.375 14.375 11.2969 14.375 7.5C14.375 3.70312 11.2969 0.625 7.5 0.625ZM10.48 6.3375C10.5349 6.27478 10.5766 6.20171 10.6029 6.12261C10.6291 6.0435 10.6392 5.95995 10.6327 5.87687C10.6261 5.79378 10.603 5.71285 10.5647 5.63883C10.5264 5.56481 10.4737 5.49919 10.4097 5.44584C10.3457 5.39249 10.2716 5.35248 10.1919 5.32816C10.1122 5.30385 10.0285 5.29573 9.94555 5.30427C9.86265 5.31281 9.7823 5.33784 9.70922 5.3779C9.63613 5.41795 9.5718 5.47222 9.52 5.5375L6.8325 8.76188L5.44187 7.37063C5.324 7.25678 5.16612 7.19378 5.00225 7.1952C4.83838 7.19663 4.68162 7.26236 4.56574 7.37824C4.44986 7.49412 4.38413 7.65088 4.3827 7.81475C4.38128 7.97862 4.44428 8.1365 4.55813 8.25437L6.43313 10.1294C6.49454 10.1907 6.56806 10.2387 6.64901 10.27C6.72996 10.3014 6.81656 10.3156 6.90329 10.3117C6.99003 10.3077 7.07499 10.2857 7.15276 10.2472C7.23053 10.2086 7.29941 10.1542 7.355 10.0875L10.48 6.3375Z" fill="#E74C3C"/>
</svg>
