<svg width="15" height="15" viewBox="0 0 15 15" fill="none" xmlns="http://www.w3.org/2000/svg">
<g opacity="0.6">
<path d="M13.2856 6.85125C13.5819 7.23875 13.5819 7.76188 13.2856 8.14875C12.3525 9.36688 10.1138 11.875 7.50001 11.875C4.88626 11.875 2.64751 9.36688 1.71438 8.14875C1.57025 7.96321 1.492 7.73495 1.492 7.5C1.492 7.26505 1.57025 7.03679 1.71438 6.85125C2.64751 5.63312 4.88626 3.125 7.50001 3.125C10.1138 3.125 12.3525 5.63312 13.2856 6.85125V6.85125Z" stroke="#474747" stroke-width="1.5" stroke-linecap="round" stroke-linejoin="round"/>
<path d="M7.5 9.375C8.53553 9.375 9.375 8.53553 9.375 7.5C9.375 6.46447 8.53553 5.625 7.5 5.625C6.46447 5.625 5.625 6.46447 5.625 7.5C5.625 8.53553 6.46447 9.375 7.5 9.375Z" stroke="#474747" stroke-width="1.5" stroke-linecap="round" stroke-linejoin="round"/>
</g>
</svg>
