<svg width="20" height="20" viewBox="0 0 20 20" fill="none" xmlns="http://www.w3.org/2000/svg">
<path d="M18.1713 8.36794H17.5V8.33335H10V11.6667H14.7096C14.0225 13.6071 12.1763 15 10 15C7.23877 15 5.00002 12.7613 5.00002 10C5.00002 7.23877 7.23877 5.00002 10 5.00002C11.2746 5.00002 12.4342 5.48085 13.3171 6.26627L15.6742 3.90919C14.1859 2.5221 12.195 1.66669 10 1.66669C5.39794 1.66669 1.66669 5.39794 1.66669 10C1.66669 14.6021 5.39794 18.3333 10 18.3333C14.6021 18.3333 18.3333 14.6021 18.3333 10C18.3333 9.44127 18.2758 8.89585 18.1713 8.36794Z" fill="#FFC107"/>
<path d="M2.6275 6.12127L5.36542 8.12919C6.10625 6.29502 7.90042 5.00002 10 5.00002C11.2746 5.00002 12.4342 5.48085 13.3171 6.26627L15.6742 3.90919C14.1858 2.5221 12.195 1.66669 10 1.66669C6.79917 1.66669 4.02334 3.47377 2.6275 6.12127Z" fill="#FF3D00"/>
<path d="M9.99999 18.3334C12.1525 18.3334 14.1083 17.5096 15.5871 16.17L13.0079 13.9875C12.1431 14.6452 11.0864 15.0009 9.99999 15C7.83249 15 5.99207 13.618 5.29874 11.6892L2.58124 13.783C3.9604 16.4817 6.76124 18.3334 9.99999 18.3334Z" fill="#4CAF50"/>
<path d="M18.1712 8.36796H17.5V8.33337H10V11.6667H14.7096C14.3809 12.5902 13.7889 13.3972 13.0067 13.988L13.0079 13.9871L15.5871 16.1696C15.4046 16.3355 18.3333 14.1667 18.3333 10C18.3333 9.44129 18.2758 8.89587 18.1712 8.36796Z" fill="#1976D2"/>
</svg>
