<svg width="120" height="120" viewBox="0 0 120 120" fill="none" xmlns="http://www.w3.org/2000/svg">
<path fill-rule="evenodd" clip-rule="evenodd" d="M71.8864 3.89908C68.4396 1.36819 64.2751 0.00341797 59.9989 0.00341797C55.7227 0.00341797 51.5582 1.36819 48.1114 3.89908L41.1514 8.99908C40.0051 9.84151 38.6723 10.3947 37.2664 10.6116L28.7239 11.9241C24.5008 12.5733 20.5947 14.5524 17.5735 17.5736C14.5522 20.5949 12.5731 24.501 11.9239 28.7241L10.6114 37.2741C10.3945 38.68 9.84133 40.0128 8.9989 41.1591L3.8989 48.1191C1.36801 51.5658 0.00323486 55.7304 0.00323486 60.0066C0.00323486 64.2828 1.36801 68.4473 3.8989 71.8941L8.9989 78.8541C9.8464 80.0016 10.3939 81.3291 10.6114 82.7391L11.9239 91.2741C12.5731 95.4972 14.5522 99.4032 17.5735 102.425C20.5947 105.446 24.5008 107.425 28.7239 108.074L37.2589 109.387C38.6614 109.604 39.9964 110.152 41.1439 110.999L48.1039 116.099C51.5507 118.63 55.7152 119.995 59.9914 119.995C64.2676 119.995 68.4321 118.63 71.8789 116.099L78.8389 110.999C79.984 110.155 81.3173 109.601 82.7239 109.387L91.2589 108.074C95.4845 107.426 99.393 105.446 102.416 102.424C105.439 99.4007 107.418 95.4921 108.066 91.2666L109.379 82.7316C109.596 81.3291 110.144 79.9941 110.991 78.8466L116.091 71.8866C118.622 68.4398 119.987 64.2752 119.987 59.9991C119.987 55.7229 118.622 51.5583 116.091 48.1116L110.991 41.1516C110.149 40.0051 109.596 38.6724 109.379 37.2666L108.074 28.7241C107.425 24.501 105.446 20.5949 102.424 17.5736C99.4031 14.5524 95.497 12.5733 91.2739 11.9241L82.7389 10.6116C81.333 10.3944 80.0003 9.84126 78.8539 8.99908L71.8864 3.89908ZM54.7714 12.9591C57.8839 10.6716 62.1214 10.6716 65.2264 12.9591L72.1864 18.0591C74.7964 19.9791 77.8264 21.2316 81.0364 21.7266L89.5564 23.0316C93.3814 23.6166 96.3739 26.6166 96.9589 30.4341L98.2639 38.9616C98.7589 42.1641 100.011 45.1941 101.931 47.8116L107.031 54.7641C109.319 57.8766 109.319 62.1141 107.031 65.2191L101.931 72.1791C100.013 74.7901 98.7547 77.8264 98.2639 81.0291L96.9589 89.5491C96.6751 91.4108 95.8038 93.1331 94.4721 94.4648C93.1405 95.7964 91.4181 96.6677 89.5564 96.9516L81.0289 98.2566C77.8263 98.7474 74.7899 100.006 72.1789 101.924L65.2264 107.024C62.1139 109.312 57.8764 109.312 54.7714 107.024L47.8114 101.924C45.2004 100.006 42.164 98.7474 38.9614 98.2566L30.4414 96.9516C28.5797 96.6677 26.8573 95.7964 25.5257 94.4648C24.194 93.1331 23.3227 91.4108 23.0389 89.5491L21.7339 81.0216C21.2431 77.819 19.9848 74.7826 18.0664 72.1716L12.9664 65.2191C11.8538 63.7032 11.2539 61.8719 11.2539 59.9916C11.2539 58.1112 11.8538 56.28 12.9664 54.7641L18.0664 47.8041C19.9864 45.1941 21.2389 42.1641 21.7339 38.9541L23.0389 30.4341C23.6239 26.6091 26.6239 23.6166 30.4414 23.0316L38.9689 21.7266C42.1715 21.2358 45.2079 19.9775 47.8189 18.0591L54.7714 12.9591ZM84.5989 50.8491C85.5925 49.7828 86.1334 48.3724 86.1077 46.9152C86.082 45.4579 85.4917 44.0675 84.4611 43.0369C83.4305 42.0063 82.0401 41.416 80.5828 41.3903C79.1256 41.3646 77.7152 41.9055 76.6489 42.8991L52.4989 67.0491L43.3489 57.8991C42.2826 56.9055 40.8722 56.3646 39.415 56.3903C37.9577 56.416 36.5673 57.0063 35.5367 58.0369C34.5061 59.0675 33.9158 60.4579 33.8901 61.9152C33.8644 63.3724 34.4053 64.7828 35.3989 65.8491L48.5239 78.9741C49.5786 80.0275 51.0083 80.6191 52.4989 80.6191C53.9895 80.6191 55.4192 80.0275 56.4739 78.9741L84.5989 50.8491Z" fill="#4CAF50"/>
</svg>
