<svg width="120" height="120" viewBox="0 0 120 120" fill="none" xmlns="http://www.w3.org/2000/svg">
<path d="M60 112.5C46.0761 112.5 32.7226 106.969 22.8769 97.1231C13.0312 87.2774 7.5 73.9239 7.5 60C7.5 46.0761 13.0312 32.7226 22.8769 22.8769C32.7226 13.0312 46.0761 7.5 60 7.5C73.9239 7.5 87.2774 13.0312 97.1231 22.8769C106.969 32.7226 112.5 46.0761 112.5 60C112.5 73.9239 106.969 87.2774 97.1231 97.1231C87.2774 106.969 73.9239 112.5 60 112.5ZM60 120C75.913 120 91.1742 113.679 102.426 102.426C113.679 91.1742 120 75.913 120 60C120 44.087 113.679 28.8258 102.426 17.5736C91.1742 6.32141 75.913 0 60 0C44.087 0 28.8258 6.32141 17.5736 17.5736C6.32141 28.8258 0 44.087 0 60C0 75.913 6.32141 91.1742 17.5736 102.426C28.8258 113.679 44.087 120 60 120Z" fill="#E74C3C"/>
<path d="M34.845 34.8449C35.1933 34.4956 35.6071 34.2186 36.0627 34.0295C36.5183 33.8405 37.0067 33.7432 37.5 33.7432C37.9932 33.7432 38.4817 33.8405 38.9372 34.0295C39.3928 34.2186 39.8066 34.4956 40.155 34.8449L60 54.6974L79.845 34.8449C80.1936 34.4962 80.6076 34.2196 81.0631 34.0309C81.5187 33.8422 82.0069 33.7451 82.5 33.7451C82.9931 33.7451 83.4813 33.8422 83.9369 34.0309C84.3924 34.2196 84.8063 34.4962 85.155 34.8449C85.5036 35.1935 85.7802 35.6074 85.9689 36.063C86.1576 36.5185 86.2547 37.0068 86.2547 37.4999C86.2547 37.9929 86.1576 38.4812 85.9689 38.9367C85.7802 39.3923 85.5036 39.8062 85.155 40.1549L65.3025 59.9999L85.155 79.8449C85.5036 80.1935 85.7802 80.6074 85.9689 81.063C86.1576 81.5185 86.2547 82.0068 86.2547 82.4999C86.2547 82.9929 86.1576 83.4812 85.9689 83.9367C85.7802 84.3923 85.5036 84.8062 85.155 85.1549C84.8063 85.5035 84.3924 85.7801 83.9369 85.9688C83.4813 86.1575 82.9931 86.2546 82.5 86.2546C82.0069 86.2546 81.5187 86.1575 81.0631 85.9688C80.6076 85.7801 80.1936 85.5035 79.845 85.1549L60 65.3024L40.155 85.1549C39.8063 85.5035 39.3924 85.7801 38.9369 85.9688C38.4813 86.1575 37.9931 86.2546 37.5 86.2546C37.0069 86.2546 36.5187 86.1575 36.0631 85.9688C35.6076 85.7801 35.1936 85.5035 34.845 85.1549C34.4963 84.8062 34.2198 84.3923 34.0311 83.9367C33.8424 83.4812 33.7452 82.9929 33.7452 82.4999C33.7452 82.0068 33.8424 81.5185 34.0311 81.063C34.2198 80.6074 34.4963 80.1935 34.845 79.8449L54.6975 59.9999L34.845 40.1549C34.4958 39.8065 34.2187 39.3927 34.0296 38.9371C33.8406 38.4815 33.7433 37.9931 33.7433 37.4999C33.7433 37.0066 33.8406 36.5182 34.0296 36.0626C34.2187 35.607 34.4958 35.1932 34.845 34.8449Z" fill="#E74C3C"/>
</svg>
